<svg width="30" height="30" viewBox="0 0 30 30" fill="none" xmlns="http://www.w3.org/2000/svg">
<path fill-rule="evenodd" clip-rule="evenodd" d="M21.5825 13.5925H10.4125L15.2925 8.71249C15.6825 8.32249 15.6825 7.68249 15.2925 7.29249C15.1057 7.10523 14.852 7 14.5875 7C14.323 7 14.0693 7.10523 13.8825 7.29249L7.2925 13.8825C6.9025 14.2725 6.9025 14.9025 7.2925 15.2925L13.8825 21.8825C14.2725 22.2725 14.9025 22.2725 15.2925 21.8825C15.6825 21.4925 15.6825 20.8625 15.2925 20.4725L10.4125 15.5925H21.5825C22.1325 15.5925 22.5825 15.1425 22.5825 14.5925C22.5825 14.0425 22.1325 13.5925 21.5825 13.5925Z" fill="#C3CAD9"/>
</svg>
