<svg width="29" height="29" viewBox="0 0 29 29" fill="none" xmlns="http://www.w3.org/2000/svg">
<path fill-rule="evenodd" clip-rule="evenodd" d="M17.7673 16.3672H17.03L16.7687 16.1152C17.8887 14.8086 18.4673 13.0259 18.15 11.1312C17.7113 8.53656 15.546 6.46456 12.9327 6.14723C8.98468 5.66189 5.66201 8.98456 6.14735 12.9326C6.46468 15.5459 8.53668 17.7112 11.1313 18.1499C13.026 18.4672 14.8087 17.8886 16.1153 16.7686L16.3673 17.0299V17.7672L20.334 21.7339C20.7167 22.1166 21.342 22.1166 21.7247 21.7339C22.1073 21.3512 22.1073 20.7259 21.7247 20.3432L17.7673 16.3672ZM12.1673 16.3672C9.84335 16.3672 7.96735 14.4912 7.96735 12.1672C7.96735 9.84323 9.84335 7.96723 12.1673 7.96723C14.4913 7.96723 16.3673 9.84323 16.3673 12.1672C16.3673 14.4912 14.4913 16.3672 12.1673 16.3672Z" fill="white"/>
</svg>
